<svg xmlns="http://www.w3.org/2000/svg"><symbol id="add-to-cart" viewBox="0 0 256 256"><path fill="none" stroke="#5b5b5b" stroke-linecap="round" stroke-linejoin="round" stroke-width="10.66" d="M41.4 71h-20l-7.1 170.5h152.2m15.3-83.3L177.7 71H71.2m0 0V42.6c0-37.5 56.8-37.5 56.8 0m-56.8 58H128m56.8 112.5h56.9m-28.5 28.4v-56.8"/></symbol><symbol id="aproved" viewBox="0 0 256 256"><path fill="none" stroke="#5b5b5b" stroke-linecap="round" stroke-linejoin="round" stroke-width="11.8" d="M140.5 211.1H17.9V17.9h220.2v193.2h-16.5"/><path fill="none" stroke="#5b5b5b" stroke-linecap="round" stroke-linejoin="round" stroke-width="11.8" d="M140.5 211.1v27l24.1-19.1 25.6 19.1V169M47.7 49.4h157.1"/><path fill="none" stroke="#5b5b5b" stroke-linecap="round" stroke-linejoin="round" stroke-width="11.8" d="M164.6 178.3a32.4 32.4 0 1 0-32.4-32.4 32.4 32.4 0 0 0 32.4 32.4zM47.7 80.8h157.1M47.7 144.3h39.2m53.6 37.8V171"/></symbol><symbol id="card-payment" viewBox="0 0 256 256"><path fill="none" stroke="#5b5b5b" stroke-linecap="round" stroke-linejoin="round" stroke-width="11.4" d="M234.3 134.6v61.7a7.7 7.7 0 0 1-7.6 7.6H29.3a7.6 7.6 0 0 1-7.6-7.6v-89.6m0-28v-19a7.6 7.6 0 0 1 7.6-7.6h197.4a7.6 7.6 0 0 1 7.6 7.6v47m0 0H21.7m67.8 30.8H49.3m40.2 25.6H49.3"/></symbol><symbol id="cart" viewBox="0 0 256 256"><path fill="none" stroke="#5b5b5b" stroke-linecap="round" stroke-linejoin="round" stroke-width="10.77" d="M69.2 70.5H49.1l-7.2 172.1h172.2l-7.2-172.1H99.3m0 0V41.8c0-37.9 57.4-37.9 57.4 0m-57.4 58.5h57.4"/></symbol><symbol id="email" viewBox="0 0 256 256"><path fill="none" stroke="#5b5b5b" stroke-linecap="round" stroke-linejoin="round" stroke-width="13.96" d="M16.4 35L128 159 239.6 35"/><path fill="none" stroke="#5b5b5b" stroke-linecap="round" stroke-linejoin="round" stroke-width="13.96" d="M195.6 35H16.4m0 47v139h223.2V35M16.4 221l63-70.4M239.6 221l-84.3-92.4"/></symbol><symbol id="facebook" viewBox="0 0 256 256"><path fill="none" stroke="#5b5b5b" stroke-linecap="round" stroke-linejoin="round" stroke-width="13.3" d="M108.7 234.3H21.6V21.7h212.7v212.6h-90.6"/><path fill="none" stroke="#5b5b5b" stroke-linecap="round" stroke-linejoin="round" stroke-width="13.3" d="M185.5 68.4C156.7 65.3 142 79 144 112.5l-.3 121.8M109 126.9h70"/></symbol><symbol id="ganrentied" viewBox="0 0 256 256"><path fill="none" stroke="#5b5b5b" stroke-linecap="round" stroke-linejoin="round" stroke-width="12.62" d="M84.8 130.3l38 33.6 48.4-74"/><path fill="none" stroke="#5b5b5b" stroke-linecap="round" stroke-linejoin="round" stroke-width="12.62" d="M155.5 39.9c16.4 8 38.4 11.7 67.2 11v75.9c0 75.9-51.6 105.7-94.7 113.9-43.1-8.2-94.7-38-94.7-113.9V50.9c49.8 1.2 79.2-10.7 94.7-35.6"/></symbol><symbol id="hamburger" viewBox="0 0 256 256"><path fill="none" stroke="#5b5b5b" stroke-linecap="round" stroke-linejoin="round" stroke-width="35.57" d="M227.9 47.8H28.1m199.8 82.1H28.1m199.8 78.3H28.1"/></symbol><symbol id="instagram" viewBox="0 0 256 256"><path fill="none" stroke="#5b5b5b" stroke-linecap="round" stroke-linejoin="round" stroke-width="12.95" d="M93.5 59h69A34.6 34.6 0 0 1 197 93.5v69a34.6 34.6 0 0 1-34.5 34.5h-69A34.6 34.6 0 0 1 59 162.5v-69A34.6 34.6 0 0 1 93.5 59z"/><path fill="none" stroke="#5b5b5b" stroke-linecap="round" stroke-linejoin="round" stroke-width="12.95" d="M128 160.3A32.4 32.4 0 1 0 95.7 128a32.4 32.4 0 0 0 32.3 32.3zm41.4-65.9A5.4 5.4 0 1 0 164 89a5.4 5.4 0 0 0 5.4 5.4z"/><path fill="none" stroke="#5b5b5b" stroke-linecap="round" stroke-linejoin="round" stroke-width="12.95" d="M109.2 231.5H24.5v-207h207v207h-88.2"/></symbol><symbol id="search" viewBox="0 0 256 256"><path fill="none" stroke="#5b5b5b" stroke-linecap="round" stroke-linejoin="round" stroke-width="12.81" d="M168.2 208.7a102.6 102.6 0 1 1 23.1-17.4m0 0l48.3 48.3m-189-120.8a68.2 68.2 0 0 1 71.5-64.9"/></symbol><symbol id="time-tracking" viewBox="0 0 256 256"><path fill="none" stroke="#5b5b5b" stroke-linecap="round" stroke-linejoin="round" stroke-width="11.8" d="M211.5 231.9a50.3 50.3 0 1 1 17.7-16.4m-44.7-45.6v25.6h25.6"/><path fill="none" stroke="#5b5b5b" stroke-linecap="round" stroke-linejoin="round" stroke-width="11.8" d="M207.2 112.3V49.4H18.5v157.2h94.4m-63-31.4h62.9M50 79.8h31.4M18.5 49.4l31.4-31.5h125.9l31.4 31.5m-94.4 0l.1-31.5M50 109.3h31.4"/></symbol><symbol id="truck-delivery" viewBox="0 0 256 256"><path fill="none" stroke="#5b5b5b" stroke-linecap="round" stroke-linejoin="round" stroke-width="10.67" d="M71.1 222.2a17.8 17.8 0 1 0-17.7-17.8 17.8 17.8 0 0 0 17.7 17.8z"/><path fill="none" stroke="#5b5b5b" stroke-linecap="round" stroke-linejoin="round" stroke-width="10.67" d="M88.9 204.4h78.2m35.6 0h39v-56.9H96V86.8m0-24.5H71.1l-56.8 85.2v56.9h39.1"/><path fill="none" stroke="#5b5b5b" stroke-linecap="round" stroke-linejoin="round" stroke-width="10.67" d="M184.9 222.2a17.8 17.8 0 1 0-17.8-17.8 17.8 17.8 0 0 0 17.8 17.8zm56.8-99.5V40.9a7.1 7.1 0 0 0-7.1-7.1H103.1a7.2 7.2 0 0 0-7.1 7.1v21.4m-55.6 85.2h33.7m127-77.4l-51 51m19.7-58l-26.1 26"/></symbol><symbol id="twitter" viewBox="0 0 256 256"><path fill="none" stroke="#5b5b5b" stroke-linecap="round" stroke-linejoin="round" stroke-width="12.6" d="M109.7 228.7H27.3V27.3h201.4v201.4h-85.8"/><path fill="none" stroke="#5b5b5b" stroke-linecap="round" stroke-linejoin="round" stroke-width="12.6" d="M165 180.5h-35.9a36.1 36.1 0 0 1-36-35.9V75.5m0 43.8H165"/></symbol></svg>